# xmcd CD database file generated by OrangeCD 4.2
#
# Track frame offsets:
#	150
#	18525
#	34382
#	56050
#	71872
#	92605
#	117957
#	134372
#	146880
#	163230
#	181410
#	203937
#
# Disc length: 3049 seconds
#
# Revision: 2
# Processed by: cddbd v1.4PL0 Copyright (c) Steve Scherf et al.
# Submitted via: OrangeCD 4.2
#
DISCID=bc0be70c
DTITLE=Rod Piazza and the Mighty Flyers - Blues in the Dark
DYEAR=1991
DGENRE=Blues
TTITLE0=Too Late, Brother
TTITLE1=Bad Bad Boy
TTITLE2=California Blues
TTITLE3=Hear Me Knockin'
TTITLE4=Too Tired
TTITLE5=4811 Wadsworth (Blues for George)
TTITLE6=In the Dark
TTITLE7=Toddle
TTITLE8=She Wants to Sell My Monkey
TTITLE9=Are You out There?
TTITLE10=Low Down Dog
TTITLE11=Buzzin'
EXTD=
EXTT0=
EXTT1=
EXTT2=
EXTT3=
EXTT4=
EXTT5=
EXTT6=
EXTT7=
EXTT8=
EXTT9=
EXTT10=
EXTT11=
PLAYORDER=
